<?xml version="1.0" encoding="iso-8859-1"?>
<!-- Generator: Adobe Illustrator 19.0.0, SVG Export Plug-In . SVG Version: 6.00 Build 0)  -->
<svg version="1.1" id="Capa_1" xmlns="http://www.w3.org/2000/svg" xmlns:xlink="http://www.w3.org/1999/xlink" x="0px" y="0px"
	 viewBox="0 0 511.608 511.608" style="enable-background:new 0 0 511.608 511.608;" xml:space="preserve">
<circle style="fill:#7EC359;" cx="255.804" cy="255.804" r="255.804"/>
<path style="fill:#E8BB20;" d="M148.092,305.068c-12.636-10.356-31.232-10.356-43.868,0c-17.072,13.996-17.072,39.896,0,53.892
	c12.636,10.356,31.232,10.356,43.864,0C165.164,344.964,165.164,319.064,148.092,305.068z"/>
<g>
	<path style="fill:#F5EA07;" d="M126.156,361.244c16.148,0.004,29.232-13.084,29.232-29.232c0-16.144-13.088-29.232-29.232-29.232
		s-29.232,13.088-29.232,29.232C96.928,348.156,110.012,361.244,126.156,361.244z M100.004,332.012
		c-0.004-14.444,11.708-26.156,26.152-26.152c14.448,0,26.156,11.708,26.156,26.156c0,14.44-11.712,26.152-26.152,26.152
		C111.712,358.168,100.004,346.46,100.004,332.012z"/>
	<path style="fill:#F5EA07;" d="M125.128,348.784v-2.952c-3.696-0.376-7.012-1.848-9.952-4.412l2.952-3.52
		c2.264,1.968,4.6,3.144,7,3.52v-7.848c-3.048-0.728-5.28-1.684-6.696-2.872c-1.416-1.188-2.124-2.948-2.124-5.28
		c0-2.332,0.816-4.24,2.448-5.724c1.632-1.484,3.756-2.292,6.372-2.428v-2.024h2.588v2.064c2.968,0.216,5.772,1.228,8.416,3.036
		l-2.628,3.724c-1.78-1.268-3.708-2.048-5.788-2.348v7.608h0.12c3.1,0.728,5.38,1.712,6.84,2.952c1.456,1.24,2.184,3.04,2.184,5.4
		s-0.836,4.284-2.508,5.764c-1.672,1.484-3.884,2.292-6.636,2.428v2.912H125.128z M122.276,322.668
		c-0.688,0.608-1.032,1.364-1.032,2.268s0.268,1.62,0.808,2.144s1.564,1.032,3.076,1.516v-7
		C123.916,321.704,122.964,322.06,122.276,322.668z M130.796,340.412c0.756-0.62,1.132-1.404,1.132-2.348
		c0-0.944-0.296-1.692-0.892-2.244c-0.592-0.552-1.7-1.072-3.316-1.556v7.284C129.016,341.408,130.04,341.032,130.796,340.412z"/>
</g>
<path style="fill:#E8BB20;" d="M203.496,246.384c-11.632-9.536-28.756-9.536-40.388,0c-15.72,12.888-15.72,36.732,0,49.62
	c11.632,9.536,28.756,9.536,40.388,0C219.216,283.116,219.216,259.272,203.496,246.384z"/>
<g>
	<path style="fill:#F5EA07;" d="M183.304,298.104c14.868,0.004,26.916-12.048,26.912-26.912c0-14.864-12.048-26.912-26.912-26.912
		s-26.912,12.048-26.912,26.912S168.44,298.104,183.304,298.104z M159.224,271.192c-0.004-13.3,10.78-24.084,24.08-24.08
		c13.304,0,24.084,10.78,24.084,24.084c0,13.296-10.784,24.08-24.08,24.08C170.004,295.276,159.224,284.496,159.224,271.192z"/>
	<path style="fill:#F5EA07;" d="M182.356,286.636v-2.72c-3.404-0.348-6.456-1.7-9.164-4.06l2.72-3.24
		c2.088,1.812,4.236,2.892,6.444,3.24v-7.228c-2.808-0.672-4.86-1.552-6.164-2.644c-1.304-1.092-1.956-2.712-1.956-4.86
		c0-2.148,0.752-3.904,2.252-5.272c1.504-1.364,3.46-2.112,5.868-2.236v-1.864h2.384v1.9c2.732,0.2,5.316,1.132,7.748,2.796
		l-2.42,3.428c-1.64-1.168-3.416-1.888-5.328-2.16v7.004h0.112c2.856,0.672,4.956,1.576,6.296,2.72
		c1.34,1.144,2.012,2.8,2.012,4.972c0,2.172-0.772,3.944-2.312,5.308c-1.54,1.368-3.576,2.112-6.108,2.236v2.684h-2.384V286.636z
		 M179.732,262.588c-0.632,0.56-0.952,1.256-0.952,2.088c0,0.832,0.248,1.492,0.744,1.976s1.44,0.948,2.832,1.396v-6.444
		C181.24,261.7,180.364,262.028,179.732,262.588z M187.572,278.924c0.696-0.572,1.044-1.292,1.044-2.16
		c0-0.868-0.272-1.56-0.82-2.068s-1.564-0.988-3.056-1.436v6.704C185.936,279.844,186.88,279.496,187.572,278.924z"/>
</g>
<path style="fill:#E8BB20;" d="M407.384,305.068c-12.636-10.356-31.232-10.356-43.868,0c-17.072,13.996-17.072,39.896,0,53.892
	c12.636,10.356,31.232,10.356,43.864,0C424.46,344.964,424.46,319.064,407.384,305.068z"/>
<g>
	<path style="fill:#F5EA07;" d="M385.448,361.244c16.148,0.004,29.232-13.084,29.232-29.232c0-16.144-13.088-29.232-29.232-29.232
		s-29.232,13.088-29.232,29.232C356.22,348.156,369.308,361.244,385.448,361.244z M359.296,332.012
		c-0.004-14.444,11.708-26.156,26.152-26.152c14.448,0,26.156,11.708,26.156,26.156c0,14.44-11.712,26.152-26.152,26.152
		C371.004,358.168,359.296,346.46,359.296,332.012z"/>
	<path style="fill:#F5EA07;" d="M384.424,348.784v-2.952c-3.696-0.376-7.012-1.848-9.952-4.412l2.952-3.52
		c2.264,1.968,4.6,3.144,7,3.52v-7.848c-3.048-0.728-5.28-1.684-6.696-2.872c-1.416-1.188-2.124-2.948-2.124-5.28
		c0-2.332,0.816-4.24,2.448-5.724c1.632-1.484,3.756-2.292,6.372-2.428v-2.024h2.588v2.064c2.968,0.216,5.772,1.228,8.416,3.036
		l-2.628,3.724c-1.78-1.268-3.708-2.048-5.788-2.348v7.608h0.12c3.1,0.728,5.38,1.712,6.84,2.952c1.456,1.24,2.184,3.04,2.184,5.4
		s-0.836,4.284-2.508,5.764c-1.672,1.484-3.884,2.292-6.636,2.428v2.912H384.424z M381.572,322.668
		c-0.688,0.608-1.032,1.364-1.032,2.268s0.268,1.62,0.808,2.144c0.54,0.524,1.564,1.032,3.076,1.516v-7
		C383.208,321.704,382.26,322.06,381.572,322.668z M390.088,340.412c0.756-0.62,1.132-1.404,1.132-2.348
		c0-0.944-0.296-1.692-0.892-2.244c-0.592-0.552-1.7-1.072-3.316-1.556v7.284C388.308,341.408,389.332,341.032,390.088,340.412z"/>
</g>
<path style="fill:#E8BB20;" d="M348.5,246.384c-11.632-9.536-28.756-9.536-40.388,0c-15.72,12.888-15.72,36.732,0,49.62
	c11.632,9.536,28.756,9.536,40.388,0C364.22,283.116,364.22,259.272,348.5,246.384z"/>
<g>
	<path style="fill:#F5EA07;" d="M328.304,298.104c14.868,0.004,26.916-12.048,26.912-26.912c0-14.864-12.048-26.912-26.912-26.912
		c-14.864,0-26.912,12.048-26.912,26.912S313.44,298.104,328.304,298.104z M304.224,271.192c-0.004-13.3,10.78-24.084,24.08-24.08
		c13.304,0,24.084,10.78,24.084,24.084c0,13.296-10.784,24.08-24.08,24.08C315.004,295.276,304.224,284.496,304.224,271.192z"/>
	<path style="fill:#F5EA07;" d="M327.36,286.636v-2.72c-3.404-0.348-6.456-1.7-9.164-4.06l2.72-3.24
		c2.088,1.812,4.236,2.892,6.444,3.24v-7.228c-2.808-0.672-4.86-1.552-6.164-2.644c-1.304-1.092-1.956-2.712-1.956-4.86
		c0-2.148,0.752-3.904,2.252-5.272c1.504-1.364,3.46-2.112,5.868-2.236v-1.864h2.384v1.9c2.732,0.2,5.316,1.132,7.748,2.796
		l-2.42,3.428c-1.64-1.168-3.416-1.888-5.328-2.16v7.004h0.112c2.856,0.672,4.956,1.576,6.296,2.72
		c1.34,1.144,2.012,2.8,2.012,4.972c0,2.172-0.772,3.944-2.312,5.308c-1.54,1.368-3.576,2.112-6.108,2.236v2.684h-2.384V286.636z
		 M324.732,262.588c-0.632,0.56-0.952,1.256-0.952,2.088c0,0.832,0.248,1.492,0.744,1.976c0.496,0.484,1.44,0.948,2.832,1.396
		v-6.444C326.24,261.7,325.364,262.028,324.732,262.588z M332.576,278.924c0.696-0.572,1.044-1.292,1.044-2.16
		c0-0.868-0.272-1.56-0.82-2.068c-0.548-0.508-1.564-0.988-3.056-1.436v6.704C330.936,279.844,331.88,279.496,332.576,278.924z"/>
</g>
<path style="fill:#656D7A;" d="M213.556,444.816c-23.436-3.008-40.376-24.092-40.376-47.72v-6.108
	c0-5.724,4.64-10.364,10.364-10.364l0,0c5.724,0,10.364,4.64,10.364,10.364v6.992c0,12.296,8.312,23.48,20.356,25.944
	c16.56,3.388,31.176-9.232,31.176-25.208V59.032c0-5.724,4.64-10.364,10.364-10.364l0,0c5.724,0,10.364,4.64,10.364,10.364V398.72
	C266.168,426.364,241.908,448.456,213.556,444.816z"/>
<path style="fill:#4D535F;" d="M245.696,346.64c-2.048,0-3.708,1.66-3.708,3.708v48.368c0,13.812-12.62,24.768-27.028,21.824
	c-10.196-2.088-17.596-11.576-17.596-22.56v-6.376c0-7.212-5.26-13.664-12.436-14.364c-8.236-0.804-15.2,5.676-15.2,13.752v6.108
	c0,25.98,18.652,47.972,43.392,51.148c30.38,3.904,56.508-19.772,56.508-49.528v-48.372c0-2.048-1.66-3.708-3.708-3.708H245.696z"/>
<path style="fill:#FDFEFF;" d="M428.644,245.052c-0.932-19.3-16.028-34.644-34.548-34.644c-19.104,0-34.584,16.36-34.584,36.528
	c0-20.168-15.476-36.528-34.548-36.528c-19.104,0-34.584,16.36-34.584,36.528c0-20.168-15.476-36.528-34.584-36.528
	s-34.584,16.36-34.584,36.528c0-20.168-15.476-36.528-34.584-36.528c-19.072,0-34.548,16.36-34.548,36.528
	c0-20.168-15.476-36.528-34.584-36.528c-18.516,0-33.616,15.344-34.548,34.644c0.948-100.012,77.956-180.76,172.856-180.76
	S427.712,145.04,428.644,245.052z"/>
<path style="fill:#F1592F;" d="M359.516,246.936c0-20.168-15.476-36.528-34.548-36.528c-19.104,0-34.584,16.36-34.584,36.528
	c0-20.168-15.476-36.528-34.584-36.528s-34.584,16.36-34.584,36.528c0-20.168-15.476-36.528-34.584-36.528
	c-19.072,0-34.548,16.36-34.548,36.528c0-100.88,46.432-182.644,103.712-182.644S359.516,146.056,359.516,246.936z"/>
<path style="fill:#FDFEFF;" d="M290.388,246.936c0-20.168-15.476-36.528-34.584-36.528s-34.584,16.36-34.584,36.528
	c0-100.88,15.476-182.644,34.584-182.644S290.388,146.056,290.388,246.936z"/>
<g>
</g>
<g>
</g>
<g>
</g>
<g>
</g>
<g>
</g>
<g>
</g>
<g>
</g>
<g>
</g>
<g>
</g>
<g>
</g>
<g>
</g>
<g>
</g>
<g>
</g>
<g>
</g>
<g>
</g>
</svg>
