<?xml version="1.0" encoding="iso-8859-1"?>
<!-- Generator: Adobe Illustrator 19.0.0, SVG Export Plug-In . SVG Version: 6.00 Build 0)  -->
<svg version="1.1" id="Layer_1" xmlns="http://www.w3.org/2000/svg" xmlns:xlink="http://www.w3.org/1999/xlink" x="0px" y="0px"
	 viewBox="0 0 512 512" style="enable-background:new 0 0 512 512;" xml:space="preserve">
<g>
	<path style="fill:#4C4C4C;" d="M256,512H81.04c-31.072,0-56.352-25.28-56.352-56.352v-6.44c0-31.072,25.28-56.352,56.352-56.352
		h93.384c4.447,0,8.05,3.603,8.05,8.05c0,4.447-3.603,8.05-8.05,8.05H81.04c-22.195,0-40.252,18.056-40.252,40.252v6.44
		c0,22.195,18.056,40.252,40.252,40.252H256c4.447,0,8.05,3.603,8.05,8.05C264.05,508.397,260.447,512,256,512z"/>
	<path style="fill:#4C4C4C;" d="M437.4,408.956h-97.677c-4.447,0-8.05-3.603-8.05-8.05c0-4.447,3.603-8.05,8.05-8.05H437.4
		c22.195,0,40.252-18.056,40.252-40.252v-15.027c0-22.195-18.056-40.252-40.252-40.252h-31.128c-4.447,0-8.05-3.603-8.05-8.05
		s3.603-8.05,8.05-8.05H437.4c31.072,0,56.352,25.28,56.352,56.352v15.027C493.753,383.676,468.472,408.956,437.4,408.956z"/>
	<path style="fill:#4C4C4C;" d="M105.727,297.325H74.6c-31.072,0-56.352-25.28-56.352-56.352v-12.88
		c0-31.072,25.28-56.352,56.352-56.352c4.447,0,8.05,3.603,8.05,8.05c0,4.447-3.603,8.05-8.05,8.05
		c-22.195,0-40.252,18.056-40.252,40.252v12.88c0,22.195,18.056,40.252,40.252,40.252h31.128c4.447,0,8.05,3.603,8.05,8.05
		S110.174,297.325,105.727,297.325z"/>
</g>
<path style="fill:#458FDE;" d="M256,0C152.128,0,67.623,84.506,67.623,188.377c0,101.346,174.758,311.822,182.198,320.732
	c1.53,1.832,3.792,2.891,6.179,2.891c2.387,0,4.65-1.058,6.179-2.891c7.44-8.91,182.198-219.386,182.198-320.732
	C444.377,84.506,359.872,0,256,0z"/>
<path style="fill:#4F5AA8;" d="M113.241,188.377c0-96.152,72.414-175.699,165.568-186.993C271.33,0.478,263.72,0,256,0
	C152.128,0,67.623,84.506,67.623,188.377c0,101.346,174.758,311.822,182.198,320.732c1.53,1.832,3.792,2.891,6.179,2.891
	c2.387,0,4.65-1.058,6.179-2.891c1.266-1.515,7.371-8.863,16.63-20.506C233.617,431.772,113.241,272.491,113.241,188.377z"/>
<circle style="fill:#AFF078;" cx="256" cy="188.377" r="139.539"/>
<circle style="fill:#5AC779;" cx="256" cy="188.377" r="113.778"/>
<path style="fill:#FFD652;" d="M350.457,115.925H161.543c-4.447,0-8.05,3.603-8.05,8.05v137.392c0,4.447,3.603,8.05,8.05,8.05
	h188.914c4.447,0,8.05-3.603,8.05-8.05V123.975C358.507,119.528,354.904,115.925,350.457,115.925z"/>
<path style="fill:#FB9D46;" d="M161.543,115.925c-4.447,0-8.05,3.603-8.05,8.05v137.392c0,4.447,3.603,8.05,8.05,8.05h114.692
	l-93.39-153.493H161.543z"/>
<path style="fill:#F7EDBC;" d="M350.457,115.925h-42.398v153.493h42.398c4.447,0,8.05-3.603,8.05-8.05V123.975
	C358.507,119.528,354.904,115.925,350.457,115.925z"/>
<path style="fill:#FF7452;" d="M210.918,115.925v60.109c0,4.446,3.604,8.05,8.05,8.05h26.834c4.446,0,8.05-3.604,8.05-8.05v-60.109
	H210.918z"/>
<g>
	<path style="fill:#4C4C4C;" d="M281.761,222.189h-92.31c-4.447,0-8.05-3.603-8.05-8.05c0-4.447,3.603-8.05,8.05-8.05h92.31
		c4.447,0,8.05,3.603,8.05,8.05C289.811,218.585,286.208,222.189,281.761,222.189z"/>
	<path style="fill:#4C4C4C;" d="M281.761,245.803h-92.31c-4.447,0-8.05-3.603-8.05-8.05c0-4.447,3.603-8.05,8.05-8.05h92.31
		c4.447,0,8.05,3.603,8.05,8.05C289.811,242.2,286.208,245.803,281.761,245.803z"/>
</g>
<g>
</g>
<g>
</g>
<g>
</g>
<g>
</g>
<g>
</g>
<g>
</g>
<g>
</g>
<g>
</g>
<g>
</g>
<g>
</g>
<g>
</g>
<g>
</g>
<g>
</g>
<g>
</g>
<g>
</g>
</svg>
