<?xml version="1.0" encoding="iso-8859-1"?>
<!-- Generator: Adobe Illustrator 19.0.0, SVG Export Plug-In . SVG Version: 6.00 Build 0)  -->
<svg version="1.1" id="Layer_1" xmlns="http://www.w3.org/2000/svg" xmlns:xlink="http://www.w3.org/1999/xlink" x="0px" y="0px"
	 viewBox="0 0 504.123 504.123" style="enable-background:new 0 0 504.123 504.123;" xml:space="preserve">
<circle style="fill:#FD8469;" cx="252.062" cy="252.062" r="252.062"/>
<path style="fill:#324A5E;" d="M232.369,406.055L98.068,271.754c-5.514-5.514-5.514-14.966,0-20.48l126.425-126.425
	c41.354-41.354,108.308-41.354,149.662,0l5.12,5.12c41.354,41.354,41.354,108.308,0,149.662L252.849,406.055
	C247.335,411.963,237.883,411.963,232.369,406.055z"/>
<g>
	<path style="fill:#E6E9EE;" d="M266.24,143.36l94.523,94.523c2.363,2.363,2.363,5.908,0,8.271L246.942,359.582
		c-2.363,2.363-5.908,2.363-8.271,0l-94.523-94.523c-2.363-2.363-2.363-5.908,0-8.271l113.822-113.822
		C260.332,140.997,264.271,140.997,266.24,143.36z"/>
	<circle style="fill:#E6E9EE;" cx="351.705" cy="152.418" r="17.329"/>
</g>
<path style="fill:#ACB3BA;" d="M369.034,152.025c-0.394,3.545-1.969,7.089-4.726,9.846c-6.695,6.695-17.723,6.695-24.418,0
	c-3.151-3.151-5.12-7.483-5.12-11.815c-0.788,5.12,0.788,10.634,4.726,14.572c6.695,6.695,17.723,6.695,24.418,0
	C367.458,161.083,369.034,156.751,369.034,152.025z"/>
<path style="fill:#F1543F;" d="M199.68,298.929l8.665-8.665c-9.846-12.209-15.36-26.388-16.542-42.929l19.298-1.575
	c0.788,12.603,4.332,23.237,10.24,31.508l23.631-23.631c-7.089-11.422-10.634-20.874-11.422-28.751s2.363-15.36,9.452-22.055
	c7.089-6.695,14.966-10.24,24.418-9.846c9.452,0.394,18.117,4.332,26.388,11.815l5.908-5.908l7.877,7.877l-5.908,5.908
	c8.271,9.452,13.785,20.874,16.148,34.265l-18.905,3.151c-1.575-9.058-5.12-17.329-10.24-24.418l-22.843,22.843l0.394,0.394
	c7.089,11.422,11.028,21.268,11.815,29.538c0.788,8.271-2.757,15.754-9.452,22.843c-7.089,7.089-15.36,10.24-24.812,9.846
	c-9.452-0.394-18.511-4.726-27.175-12.603l-8.665,8.665L199.68,298.929z M269.391,212.283c-3.938-0.394-7.089,1.182-9.846,3.545
	c-2.757,2.757-3.938,5.514-3.938,8.665c0,3.151,1.575,7.877,4.726,13.785l20.874-20.874
	C277.268,214.252,273.329,212.677,269.391,212.283z M241.822,291.052c3.938,0.394,7.483-0.788,10.24-3.545
	c2.757-2.757,4.332-5.908,3.938-9.452c-0.394-3.545-1.969-8.271-5.12-14.572l-21.662,21.662
	C233.551,288.689,237.489,290.658,241.822,291.052z"/>
<g>
</g>
<g>
</g>
<g>
</g>
<g>
</g>
<g>
</g>
<g>
</g>
<g>
</g>
<g>
</g>
<g>
</g>
<g>
</g>
<g>
</g>
<g>
</g>
<g>
</g>
<g>
</g>
<g>
</g>
</svg>
