<?xml version="1.0" encoding="iso-8859-1"?>
<!-- Generator: Adobe Illustrator 19.0.0, SVG Export Plug-In . SVG Version: 6.00 Build 0)  -->
<svg version="1.1" id="Capa_1" xmlns="http://www.w3.org/2000/svg" xmlns:xlink="http://www.w3.org/1999/xlink" x="0px" y="0px"
	 viewBox="0 0 512 512" style="enable-background:new 0 0 512 512;" xml:space="preserve">
<circle style="fill:#F1592F;" cx="256" cy="256" r="256"/>
<g>
	<path style="fill:#D2D2D4;" d="M270.548,344.148c-7.8,56.784,16.824,75.592,5.98,121.552c-1.448,6.132,2.104,12.324,7.812,13.916
		c7.34,2.044,18.732,2.808,34.784-2.472c4.368-1.436,7.38-5.716,7.552-10.608c0.7-19.912,4.232-72.224,22.028-93.952
		L270.548,344.148z"/>
	<path style="fill:#D2D2D4;" d="M121.236,354.244c0,0-4.632,31.472,4.332,62.044c3.304,11.268,4.92,22.984,4.144,34.7
		c-0.356,5.392-1.104,11.132-2.492,16.632c-1.448,5.72,2.104,11.496,7.812,12.98c7.34,1.908,18.732,2.62,34.784-2.308
		c4.368-1.34,7.38-5.332,7.552-9.896c0.7-18.572,4.232-67.364,22.028-87.632L121.236,354.244z"/>
</g>
<path style="fill:#FDFEFF;" d="M469.092,304.244c-6.14-2.616-10.412-5.524-13.348-8.14c17.684-8.376,21.02-36.536,3.928-44.132
	c-19.668-8.816-39.78,19.904-27.388,38.252c-3.736,3.076-7.988,5.048-11.884,6.328c-6.18-68.2-80.452-122.048-171.16-122.048
	c-35.98,0-69.364,8.484-96.948,22.968c-24.076,12.644-40.344-2.096-60.188-9.46c-6.732-2.5-13.792,2.56-13.784,9.74
	c0.012,11.164,2.464,27.352,13.94,41.68l0.048,0.06c5.228,6.508,0.284,12.36-2.28,17.236c-5.78,10.988-17.368,17.676-29.788,17.676
	H48.644l10.3,78.252h10.772c10.952,0,21.38,5.184,27.592,14.204c9.084,13.2,21.016,25.068,35.172,35.128
	c22.696,16.128,29.164,55.212,22.192,82.576c-1.448,5.68,2.084,11.364,7.752,12.848c7.348,1.924,18.76,2.656,34.868-2.288
	c4.376-1.336,7.384-5.328,7.552-9.896c0.416-10.784,1.772-31.756,6.328-51.404c30.268,5.244,63.416,4.32,94.896-4.14
	c3.944,17.492,3.664,34.444,0.192,49.156c-1.448,6.136,2.108,12.332,7.812,13.912c7.348,2.052,18.736,2.816,34.784-2.468
	c4.376-1.436,7.384-5.712,7.552-10.616c0.48-13.44,2.244-41.664,8.828-65.264c2.516-9.02,7.576-17.176,14.548-23.424
	c24.044-21.54,39.128-49.096,40.872-79.308c6.192-1.572,13.756-4.444,20.456-9.82c4.096,5.036,11.032,11.088,22.632,15.956
	c4.248,1.812,9.26-0.756,10.044-5.652C474.324,308.824,472.204,305.568,469.092,304.244z M445.724,283.268
	c-2.536-1.132-3.656-6.24-1.368-11.38c1.616-3.628,6.084-8.1,9.368-6.596c3.312,1.472,2.976,7.788,1.368,11.376
	C453.488,280.272,449.016,284.772,445.724,283.268z"/>
<circle style="fill:#D2D2D4;" cx="126.596" cy="281.04" r="16.984"/>
<path style="fill:#656D7A;" d="M300.892,237.108c-32.356-15.48-72.456-17.56-106.864-6.328c-4.684,1.52-9.712-1.028-11.24-5.712
	c-1.528-4.68,1.028-9.712,5.708-11.24c16.212-5.288,33.392-7.976,51.052-7.976c24.424,0,48.3,5.248,69.044,15.172
	c4.44,2.124,6.32,7.448,4.196,11.888C310.656,237.356,305.332,239.236,300.892,237.108z"/>
<path style="fill:#D2D2D4;" d="M68.584,313.528c2.848,21.608-1.468,39.124-9.636,39.124s-17.096-17.516-19.944-39.124
	s1.468-39.124,9.636-39.124S65.74,291.92,68.584,313.528z"/>
<g>
	<path style="fill:#656D7A;" d="M64.456,311.692c2.016,9.36,1.804,17.184-0.472,17.48c-2.276,0.296-5.756-7.056-7.772-16.412
		c-2.016-9.36-1.804-17.184,0.472-17.48C58.96,294.988,62.44,302.336,64.456,311.692z"/>
	<path style="fill:#656D7A;" d="M51.4,313.38c2.016,9.36,1.804,17.184-0.472,17.48c-2.276,0.296-5.756-7.056-7.772-16.412
		c-2.016-9.36-1.804-17.184,0.472-17.48C45.904,296.672,49.384,304.02,51.4,313.38z"/>
</g>
<path style="fill:#D2D2D4;" d="M91.968,219.092c-4.552-4.784-5.368-17.396-3.656-20.704c0.916-1.772,3.208-2.992,4.964-2.044
	c4.352,2.356-1.668,11.556,8.744,12.852c5.112,0.636,20.564-4.532,34.316,9.036c-1.988-1.64-5.152-0.708-6.92,1.172
	c-3.588,3.816-3.624,10.736-9.076,11.944c-4.6,1.016-4.36-2.252-11.08,6.752c-2.344,3.14-11.284,5.496-6.172,0.464
	C114.168,227.664,96.248,223.588,91.968,219.092z"/>
<path style="fill:#E8BB20;" d="M280.868,128.804c-18.672-15.308-46.16-15.308-64.836,0c-25.236,20.688-25.236,58.964,0,79.652
	c18.672,15.308,46.16,15.308,64.832,0C306.104,187.768,306.104,149.492,280.868,128.804z"/>
<g>
	<path style="fill:#F5EA07;" d="M248.452,211.828c23.864,0.004,43.208-19.336,43.204-43.204c0-23.86-19.344-43.204-43.2-43.204
		s-43.204,19.344-43.204,43.204C205.248,192.488,224.592,211.828,248.452,211.828z M209.796,168.628
		c-0.004-21.348,17.304-38.66,38.656-38.656c21.356,0,38.66,17.304,38.66,38.66c0,21.344-17.312,38.656-38.656,38.656
		C227.1,207.288,209.796,189.98,209.796,168.628z"/>
	<path style="fill:#F5EA07;" d="M246.932,193.416v-4.364c-5.464-0.556-10.364-2.732-14.712-6.52l4.364-5.204
		c3.348,2.912,6.796,4.644,10.344,5.204v-11.6c-4.504-1.076-7.804-2.492-9.896-4.248c-2.092-1.752-3.14-4.356-3.14-7.804
		s1.204-6.268,3.616-8.46s5.552-3.388,9.42-3.588v-2.992h3.828v3.048c4.384,0.32,8.532,1.816,12.44,4.484l-3.888,5.5
		c-2.632-1.872-5.484-3.028-8.552-3.468v11.244h0.18c4.584,1.076,7.952,2.532,10.108,4.364c2.152,1.836,3.228,4.496,3.228,7.984
		c0,3.488-1.236,6.328-3.708,8.52c-2.472,2.192-5.74,3.388-9.808,3.588v4.304h-3.824V193.416z M242.72,154.816
		c-1.016,0.896-1.524,2.012-1.524,3.348c0,1.336,0.4,2.392,1.196,3.168s2.312,1.524,4.544,2.244v-10.348
		C245.14,153.388,243.736,153.92,242.72,154.816z M255.308,181.04c1.116-0.916,1.676-2.072,1.676-3.468s-0.44-2.5-1.316-3.32
		c-0.876-0.816-2.512-1.584-4.904-2.304v10.764C252.676,182.516,254.192,181.956,255.308,181.04z"/>
</g>
<path style="fill:#F7CFA3;" d="M358.24,21.244c-1,3.16-1.6,5.56-1.6,5.56c-4.6,6.16-6.2,18.04-6.2,18.04
	c-1.16,10.96-15.48,32.56-15.48,32.56c-6.048,9.844-8.46,34.04-7.96,38.04c0.356,3.308-1.472,11.308-4.8,15.4
	c-7.78,9.308-8.02,16.64-9.88,20.64c0,0.04-0.04,0.12-0.04,0.16c-0.04,0.08-0.08,0.2-0.16,0.4c-4.64,11.36-11.08,9.76-13.36,8.72
	c-0.56-0.24-0.88-0.44-0.88-0.44c-14.2-12.04-2-42.04-2-42.04c-1.2-7.56,3.2-16.44,4.68-23.96c1.48-7.52-5.28-12.96-5.28-12.96
	l0.64,4.24c2.04,7-6.04,14.68-6.04,14.68l-15.36,6.24l-16.24,5.84c-14.12,8.72-16.08-5.08-16.08-5.08l-4.8-22.88
	c-10.52,14.04-20.48,13.8-20.48,13.8c1,12.4-7.72,23.36-7.72,23.36c7.6,33.4-12.4,30.96-12.4,30.96
	c-0.48-2.12-3.36-12.92-3.72-14.28c0-0.08-0.04-0.12-0.04-0.12c-5.096-12-1.068-26.588,1.68-42.32c-1.84-10.6,6.36-16.28,6.36-16.28
	c6.48-5.04,15.12-13.52,21.56-20.12c11.824-11.924,3.856-24.564,18.28-30.36c36.752-16.6,41.748-18.184,53.56-26.16
	C316.8,6.244,338.2,12.484,358.24,21.244z"/>
<g>
	<path style="fill:#FDFEFF;" d="M193.04,138.144c0,0,6.256,8.744,3.772,14.388c0,0-2.484,1.308-2.7-4.952L193.04,138.144z"/>
	<path style="fill:#FDFEFF;" d="M307.684,142.984c0,0,7.812,1.536,4.652,8.492c0,0-1.804,5.608-5.16,10.916
		c0,0-2.968,5.788-7.432-0.244c0,0-4.176-3.8-1.608-13.212C298.136,148.94,299.78,141.764,307.684,142.984z"/>
</g>
<g>
	<path style="fill:#F0B97C;" d="M306.4,127.24c3.62-0.412,11,1.068,14.06,2.748C316.988,130.392,309.608,128.988,306.4,127.24z"/>
	<path style="fill:#F0B97C;" d="M307.876,119.696c3.732-3.02,11.8-3.532,15.66,0.672
		C318.176,118.824,317.936,118.336,307.876,119.696z"/>
	<path style="fill:#F0B97C;" d="M306.264,113.676c3.608-2.528,12.736-2.572,18.448,0.684
		C320.712,114.2,313.824,112.648,306.264,113.676z"/>
	<path style="fill:#F0B97C;" d="M284.38,91.88c0,0-10.252-6.02-10.632-11.536c0,0-3.964-1.156-4.912,2.792
		c0,0-6.268,15.108-11.488,19.392c0,0,7.736-12.428,8.7-20.068c0,0-0.472-2.348-6.62-0.764c0,0,5.232-2.5,7.004-4.604
		c0,0,5.684-3.268,6.536-6.952c0,0,2.056,2.392,3.02,1.52C275.988,71.66,271.016,79.928,284.38,91.88z"/>
	<path style="fill:#F0B97C;" d="M264.644,65.496c1.42,0.54,7.416,4.008,8.32,4.648C269.888,70.98,265.536,68.092,264.644,65.496z"/>
	<path style="fill:#F0B97C;" d="M253.792,79.076c14.332-7.196,11.068-5.788,16.588-9.668
		C267.476,74.768,259.036,79.008,253.792,79.076z"/>
</g>
<g>
</g>
<g>
</g>
<g>
</g>
<g>
</g>
<g>
</g>
<g>
</g>
<g>
</g>
<g>
</g>
<g>
</g>
<g>
</g>
<g>
</g>
<g>
</g>
<g>
</g>
<g>
</g>
<g>
</g>
</svg>
